<svg width="23" height="19" viewBox="0 0 23 19" fill="none" xmlns="http://www.w3.org/2000/svg">
<path d="M22.75 6.375V4.29167H20.5V2.20833C20.5 1.0625 19.4875 0.125 18.25 0.125H2.5C1.2625 0.125 0.25 1.0625 0.25 2.20833V16.7917C0.25 17.9375 1.2625 18.875 2.5 18.875H18.25C19.4875 18.875 20.5 17.9375 20.5 16.7917V14.7083H22.75V12.625H20.5V10.5417H22.75V8.45833H20.5V6.375H22.75ZM18.25 16.7917H2.5V2.20833H18.25V16.7917ZM4.75 10.5417H10.375V14.7083H4.75V10.5417ZM11.5 4.29167H16V7.41667H11.5V4.29167ZM4.75 4.29167H10.375V9.5H4.75V4.29167ZM11.5 8.45833H16V14.7083H11.5V8.45833Z" fill="#767676"/>
</svg>
