<svg width="21" height="19" viewBox="0 0 21 19" fill="none" xmlns="http://www.w3.org/2000/svg">
<path d="M13.875 0.125H2.625C1.3875 0.125 0.38625 1.0625 0.38625 2.20833L0.375 16.7917C0.375 17.9375 1.37625 18.875 2.61375 18.875H18.375C19.6125 18.875 20.625 17.9375 20.625 16.7917V6.375L13.875 0.125ZM2.625 16.7917V2.20833H12.75V7.41667H18.375V16.7917H2.625ZM7.125 5.33333C7.125 5.90625 6.61875 6.375 6 6.375C5.38125 6.375 4.875 5.90625 4.875 5.33333C4.875 4.76042 5.38125 4.29167 6 4.29167C6.61875 4.29167 7.125 4.76042 7.125 5.33333ZM7.125 9.5C7.125 10.0729 6.61875 10.5417 6 10.5417C5.38125 10.5417 4.875 10.0729 4.875 9.5C4.875 8.92708 5.38125 8.45833 6 8.45833C6.61875 8.45833 7.125 8.92708 7.125 9.5ZM7.125 13.6667C7.125 14.2396 6.61875 14.7083 6 14.7083C5.38125 14.7083 4.875 14.2396 4.875 13.6667C4.875 13.0937 5.38125 12.625 6 12.625C6.61875 12.625 7.125 13.0937 7.125 13.6667Z" fill="#59C891"/>
</svg>
